<svg width="637" height="59" viewBox="0 0 637 59" fill="none" xmlns="http://www.w3.org/2000/svg">
<path d="M507.305 2.79422C509.299 2.81241 511.293 2.8135 513.287 2.81448C521.912 2.85285 530.404 3.30279 539 4.00003C539 8.29003 539 12.58 539 17C537.893 16.9278 536.785 16.8557 535.645 16.7813C520.429 15.8697 505.238 15.8969 490 16C490 17.98 490 19.96 490 22C492.507 23.2537 494.297 23.1583 497.102 23.211C498.142 23.2371 499.183 23.2633 500.255 23.2903C501.367 23.3183 502.479 23.3462 503.625 23.375C530.065 24.2567 530.065 24.2567 539 31C542.163 34.69 542.52 38.0786 542.355 42.7852C541.671 47.0481 539.277 49.7227 536.312 52.6875C527.909 57.457 518.612 58.1247 509.133 58.1328C508.413 58.1338 507.694 58.1348 506.952 58.1357C505.441 58.1364 503.93 58.1346 502.419 58.1304C500.138 58.1251 497.856 58.1304 495.574 58.1367C487.991 58.1398 480.536 57.9439 473 57C473 52.71 473 48.42 473 44C474.732 44.165 476.465 44.33 478.25 44.5C485.936 45.0439 493.609 45.1474 501.312 45.1875C503.118 45.2069 503.118 45.2069 504.96 45.2266C511.638 45.234 517.549 44.7494 524 43C524 41.68 524 40.36 524 39C517.127 37.2428 510.703 36.6596 503.625 36.5C481.483 35.9968 481.483 35.9968 475 30C472.313 25.2529 471.322 21.4242 472 16C473.696 11.2036 476.27 8.06813 480.923 5.7676C489.379 2.64237 498.411 2.71072 507.305 2.79422Z" fill="#00023D"/>
<path d="M603.069 2.71878C605.131 2.75011 607.192 2.75979 609.254 2.76565C617.215 2.81266 625.076 3.23356 633 4.00003C633 8.29003 633 12.58 633 17C631.858 16.9278 630.716 16.8557 629.539 16.7813C619.315 16.1799 609.117 15.8921 598.875 15.875C597.159 15.8683 597.159 15.8683 595.409 15.8614C594.343 15.8633 593.278 15.8652 592.18 15.8672C591.228 15.8683 590.277 15.8695 589.296 15.8706C586.971 15.8496 586.971 15.8496 585 17C585 18.65 585 20.3 585 22C587.464 23.2319 589.199 23.1734 591.953 23.2461C592.959 23.2774 593.964 23.3086 595 23.3408C596.073 23.3728 597.145 23.4047 598.25 23.4375C625.845 24.4756 625.845 24.4756 633 31C636.613 34.9323 636.512 38.1497 636.34 43.3086C635.846 47.2188 634.749 49.182 632 52C622.069 59.1856 608.381 58.3013 596.69 58.2058C594.372 58.1875 592.053 58.1853 589.734 58.1856C582.102 58.1669 574.585 57.9462 567 57C567 52.71 567 48.42 567 44C567.963 44.0722 568.926 44.1444 569.918 44.2188C580.05 44.9101 590.157 45.1098 600.313 45.125C602.216 45.1318 602.216 45.1318 604.159 45.1387C605.962 45.1358 605.962 45.1358 607.801 45.1328C609.412 45.1311 609.412 45.1311 611.056 45.1294C613.814 45.0082 616.316 44.6248 619 44C618.34 42.02 617.68 40.04 617 38C612.927 37.2427 609.035 36.8597 604.895 36.7891C603.171 36.7466 603.171 36.7466 601.412 36.7032C599.032 36.6515 596.652 36.6071 594.271 36.5703C575.839 36.0769 575.839 36.0769 569.313 30C566.446 26.0869 566.266 22.3336 566.539 17.5899C567.336 13.1116 569.412 10.4079 572.75 7.44827C581.193 2.01318 593.398 2.5713 603.069 2.71878Z" fill="#00023D"/>
<path d="M217.31 2.71879C219.628 2.75008 221.947 2.75979 224.266 2.76566C231.895 2.80605 239.419 3.06189 247 4.00004C247 8.29004 247 12.58 247 17C244.987 16.9686 244.987 16.9686 242.933 16.9366C237.953 16.8642 232.974 16.8182 227.994 16.7803C225.838 16.7602 223.683 16.7329 221.528 16.6983C218.43 16.6498 215.333 16.6271 212.234 16.6094C211.271 16.5888 210.307 16.5681 209.314 16.5469C204.038 16.5013 204.038 16.5013 199.391 18.7469C197.857 21.2322 197.497 22.5435 197.504 25.4414C197.503 26.2722 197.503 27.103 197.502 27.959C197.532 29.2478 197.532 29.2478 197.563 30.5625C197.555 31.4256 197.548 32.2886 197.541 33.1778C197.383 37.7825 197.383 37.7825 199.402 41.7068C202.115 43.9025 203.85 44.1233 207.266 44.1136C208.147 44.1135 209.028 44.1134 209.935 44.1133C210.887 44.1082 211.839 44.103 212.82 44.0977C213.794 44.0963 214.768 44.0949 215.771 44.0934C218.889 44.0878 222.007 44.0752 225.125 44.0625C227.236 44.0575 229.346 44.053 231.457 44.0489C236.638 44.0378 241.819 44.0206 247 44C247 48.29 247 52.58 247 57C238.312 57.8498 229.698 58.1864 220.972 58.1853C218.871 58.1875 216.769 58.2058 214.668 58.2246C203.921 58.2707 193.578 58.2305 185 51C179.578 44.1879 179.741 38.1439 179.625 29.75C179.588 28.7381 179.55 27.7262 179.512 26.6836C179.415 18.381 181.618 13.792 187.063 7.68754C196.327 2.36522 206.951 2.57815 217.31 2.71879Z" fill="#00023D"/>
<path fill-rule="evenodd" clip-rule="evenodd" d="M447.223 24C446.489 17.4215 444.414 12.974 439.453 8.65235C424.968 -1.96401 385.255 -1.56784 370.625 9.1875C365.408 14.7776 364.62 20.8102 364.59 28.1816L364.625 31.0625C364.534 38.5488 364.588 44.7077 369.438 50.8086C378.208 57.4957 389.946 58.2374 400.553 58.2781L403.875 58.25C408.253 58.2269 412.625 58.1685 417 58C425.995 57.3949 436.613 55.9192 443 49C447.833 41.3623 447.704 32.7373 447.223 24ZM397.422 14.822L395.266 14.8321L395.163 14.8322C390.141 14.8403 386.538 14.846 382.34 17.9961C379.58 21.5391 379.423 23.2913 379.463 27.6426L379.562 30.0625C379.567 30.6423 379.563 31.2194 379.56 31.7928C379.538 35.7905 379.517 39.6156 382 43C385.777 45.0648 388.333 45.9315 392.621 46.3724L396.437 46.3633C397.841 46.3643 399.245 46.3636 400.648 46.3614C402.827 46.3361 405.005 46.3126 407.185 46.3157L407.767 46.3176C414.756 46.3407 421.285 46.3623 428 44C431.273 40.4796 431.387 36.9559 431.41 32.3575L431.375 29.9375C431.378 29.7217 431.381 29.5072 431.385 29.294C431.445 25.4995 431.498 22.1168 429.914 18.5665C425.779 15.1822 420.446 14.7724 415.252 14.7478L413.203 14.7696C411.736 14.7705 410.268 14.7725 408.801 14.7754C406.514 14.7944 404.228 14.8126 401.941 14.8147C400.435 14.8146 398.928 14.8169 397.422 14.822Z" fill="#00023D"/>
<path d="M40 4C64.09 4 88.18 4 113 4C113 7.63 113 11.26 113 15C103.43 15 93.86 15 84 15C84 28.86 84 42.72 84 57C79.38 57 74.76 57 70 57C70 43.14 70 29.28 70 15C60.1 15 50.2 15 40 15C40 11.37 40 7.74 40 4Z" fill="#00023D"/>
<path d="M3 4C27.09 4 -7.82 4 17 4C17 4 17 11.26 17 15C26.86 15 7.43 15 17 15C17 28.86 17 42.72 17 57C12.38 57 7.76 57 3 57C3 43.14 3 29.28 3 15C13.2 15 -6.9 15 3 15C3 11.37 3 7.74 3 4Z" fill="#00023D"/>
<path fill-rule="evenodd" clip-rule="evenodd" d="M298.875 3.81251L274 4.00001V57H290V40H313C314.893 45.6794 317.2 51.1416 321.186 55.6743C322.568 56.6844 323.557 57.4071 324.655 57.873C327.417 59.0448 330.868 58.5919 343 57C343 56.7984 343 56.6332 342.98 56.4705C342.89 55.7341 342.393 55.0475 339.645 51.2539L338 49C335.859 46.0524 333.719 43.1051 331.574 40.1602L330 38C331.587 38 332.334 38 333.047 37.8428C333.682 37.7028 334.289 37.438 335.438 36.9375C338.768 34.4192 340.725 31.9409 342 28C342.781 20.6295 342.618 15.3542 338 9.43751C331.641 4.27105 324.018 3.65774 316.049 3.66053L312.867 3.70704C310.801 3.71333 308.734 3.72097 306.667 3.72975L298.875 3.81251ZM301.815 14.8353C296.21 14.8714 290.605 14.9258 285 15.0001V29.0001C289.658 29.0618 294.316 29.1135 298.975 29.1465C300.879 29.1588 302.783 29.1725 304.688 29.1876C307.489 29.2258 310.291 29.2634 313.093 29.2802L315.762 29.293C315.935 29.2962 316.106 29.2994 316.277 29.3026C320.57 29.3839 324.024 29.4493 328.036 27.6028C329.115 26.7222 329.601 26.3254 329.93 25.8253C330.2 25.4152 330.365 24.9355 330.664 24.0626L330.625 22.0001C330.645 20.9652 330.654 20.4496 330.575 19.948C330.497 19.4498 330.331 18.9654 330 18.0001C326.199 14.8983 323.038 14.6588 318.335 14.6602L315.762 14.7071C313.019 14.7203 310.276 14.7373 307.533 14.7737C305.627 14.7997 303.721 14.8202 301.815 14.8353Z" fill="#00023D"/>
<path d="M116 31C130.19 31 144.38 31 159 31C159 33.97 159 36.94 159 40C144.81 40 130.62 40 116 40C116 37.03 116 34.06 116 31Z" fill="#00023D"/>
</svg>
